<?xml version="1.0" encoding="UTF-8"?>
<svg width="700pt" height="700pt" version="1.1" viewBox="0 0 700 700" xmlns="http://www.w3.org/2000/svg">
 <g>
  <path d="m661.11 171.76h-622.22c-21.258 0-38.891-17.629-38.891-38.891 0-21.258 17.629-38.887 38.891-38.887h622.22c21.258 0 38.891 17.629 38.891 38.891 0 21.258-17.629 38.891-38.891 38.891z"/>
  <path d="m556.37 337.68h-412.74c-21.258 0-38.891-17.629-38.891-38.891 0-21.258 17.629-38.891 38.891-38.891h413.26c21.258 0 38.891 17.629 38.891 38.891 0 21.258-17.629 38.891-38.891 38.891z"/>
  <path d="m426.74 503.61h-154c-21.258 0-38.891-17.629-38.891-38.891 0-21.258 17.629-38.891 38.891-38.891h154c21.258 0 38.891 17.629 38.891 38.891 0 21.258-17.629 38.891-38.891 38.891z"/>
 </g>
</svg>
